<?xml version="1.0" encoding="utf-8"?>
<!-- Generator: Adobe Illustrator 19.0.0, SVG Export Plug-In . SVG Version: 6.00 Build 0)  -->
<svg version="1.2" baseProfile="tiny" id="Слой_1"
	 xmlns="http://www.w3.org/2000/svg" xmlns:xlink="http://www.w3.org/1999/xlink" x="0px" y="0px" viewBox="0 0 71 71"
	 xml:space="preserve">
<path id="XMLID_94_" fill="none" stroke="#3A3A3C" stroke-width="2" stroke-miterlimit="10" d="M65,29.7c3.3,3.3,3.3,8.7,0,12
	L41.8,65c-3.3,3.3-8.7,3.3-12,0L6.5,41.8c-3.3-3.3-3.3-8.7,0-12L29.7,6.5c3.3-3.3,8.7-3.3,12,0L65,29.7z"/>
<g id="XMLID_139_">
	<path id="XMLID_140_" fill="#3A3A3C" d="M31.3,25.6c0-0.2,0-0.6,0.1-1.3c0.1-0.7,0.3-1.4,0.8-2.2c0.4-0.7,1.1-1.4,2.1-2
		c1-0.6,2.4-0.9,4.3-0.9h5.2v5.9h-3.8c-0.4,0-0.7,0.1-1.1,0.4c-0.3,0.3-0.5,0.6-0.5,0.8v3.7h5.4c-0.1,0.7-0.1,1.4-0.2,2.1l-0.2,1.8
		c-0.1,0.6-0.2,1.2-0.3,1.7h-4.7v16.5h-7.1V35.8h-3.4v-5.6h3.4V25.6z"/>
</g>
<g id="XMLID_1_">
</g>
<g id="XMLID_2_">
</g>
<g id="XMLID_3_">
</g>
<g id="XMLID_4_">
</g>
<g id="XMLID_5_">
</g>
<g id="XMLID_6_">
</g>
</svg>
