<?xml version="1.0" encoding="utf-8"?>
<!-- Generator: Adobe Illustrator 19.0.0, SVG Export Plug-In . SVG Version: 6.00 Build 0)  -->
<svg version="1.2" baseProfile="tiny" id="Слой_1"
	 xmlns="http://www.w3.org/2000/svg" xmlns:xlink="http://www.w3.org/1999/xlink" x="0px" y="0px" viewBox="0 0 71 71"
	 xml:space="preserve">
<path id="XMLID_149_" fill="none" stroke="#3A3A3C" stroke-width="2" stroke-miterlimit="10" d="M64.5,29.5c3.3,3.3,3.3,8.7,0,12
	L41.3,64.7c-3.3,3.3-8.7,3.3-12,0L6,41.5c-3.3-3.3-3.3-8.7,0-12L29.2,6.3c3.3-3.3,8.7-3.3,12,0L64.5,29.5z"/>
<g id="XMLID_1_">
	<g id="post-instagram">
		<path id="XMLID_3_" fill="#3A3A3C" d="M47.2,20.5h-24c-1.6,0-3,1.3-3,3v24c0,1.6,1.3,3,3,3h24c1.6,0,3-1.3,3-3v-24
			C50.2,21.9,48.9,20.5,47.2,20.5z M35.2,29.5c3.3,0,6,2.7,6,6s-2.7,6-6,6s-6-2.7-6-6S31.9,29.5,35.2,29.5z M24,47.5
			c-0.4,0-0.7-0.3-0.7-0.7V34h3.1c-0.1,0.4-0.1,1-0.1,1.5c0,4.9,4,9,9,9s9-4,9-9c0-0.4,0-1-0.1-1.5h3.1v12.7c0,0.4-0.3,0.7-0.7,0.7
			H24z M47.2,27.3c0,0.4-0.3,0.7-0.7,0.7h-3c-0.4,0-0.7-0.3-0.7-0.7v-3c0-0.4,0.3-0.7,0.7-0.7h3c0.4,0,0.7,0.3,0.7,0.7V27.3z"/>
	</g>
</g>
<g id="XMLID_2_">
</g>
<g id="XMLID_8_">
</g>
<g id="XMLID_9_">
</g>
<g id="XMLID_10_">
</g>
<g id="XMLID_11_">
</g>
<g id="XMLID_12_">
</g>
</svg>
