<?xml version="1.0" encoding="utf-8"?>
<!-- Generator: Adobe Illustrator 19.0.0, SVG Export Plug-In . SVG Version: 6.00 Build 0)  -->
<svg version="1.2" baseProfile="tiny" id="Слой_1"
	 xmlns="http://www.w3.org/2000/svg" xmlns:xlink="http://www.w3.org/1999/xlink" x="0px" y="0px" viewBox="0 0 228 77"
	 xml:space="preserve">
<g id="XMLID_13_">
	<rect id="XMLID_15_" x="0.5" y="0.4" fill="#FFFFFF" width="227" height="76.1"/>
	<g id="XMLID_3_">
		<g id="XMLID_38_">
			<path id="XMLID_31_" fill="#939496" d="M29.3,40.6c0,1.2-0.3,2-0.8,2.5c-0.5,0.5-1.3,0.8-2.5,0.8h-3V33.2h5.7v1.1h-4.4v3.3H26
				c0.5,0,1,0.1,1.4,0.2c0.4,0.1,0.8,0.3,1,0.5c0.3,0.2,0.5,0.5,0.7,0.9C29.2,39.6,29.3,40,29.3,40.6z M28,40.7c0-0.4-0.1-0.7-0.2-1
				c-0.1-0.3-0.3-0.5-0.5-0.6c-0.2-0.1-0.4-0.3-0.7-0.3c-0.3-0.1-0.6-0.1-0.9-0.1h-1.4v4.1h1.2c0.4,0,0.7,0,1-0.1
				c0.3-0.1,0.6-0.2,0.8-0.3c0.2-0.1,0.4-0.4,0.5-0.6S28,41.2,28,40.7z"/>
			<path id="XMLID_37_" fill="#939496" d="M31,38.5c0-1.9,0.3-3.3,0.8-4.2c0.6-0.9,1.4-1.3,2.6-1.3c1.2,0,2,0.4,2.6,1.3
				c0.5,0.8,0.8,2.2,0.8,4c0,0.4,0,0.8,0,1.3c0,0.5-0.1,0.9-0.1,1.3c-0.1,0.4-0.2,0.8-0.3,1.2s-0.4,0.7-0.6,1
				c-0.3,0.3-0.6,0.5-1,0.7c-0.4,0.2-0.9,0.3-1.4,0.3c-0.5,0-1-0.1-1.3-0.2c-0.4-0.2-0.7-0.4-0.9-0.7c-0.3-0.3-0.4-0.6-0.6-1
				c-0.1-0.4-0.3-0.8-0.3-1.2c-0.1-0.4-0.1-0.8-0.1-1.3C31,39.3,31,38.9,31,38.5z M32.3,38.6c0,1.6,0.2,2.7,0.5,3.4
				c0.3,0.7,0.8,1.1,1.6,1.1c0.4,0,0.7-0.1,1-0.3c0.3-0.2,0.5-0.4,0.7-0.8s0.3-0.8,0.4-1.4s0.1-1.2,0.1-2c0-0.8,0-1.5-0.1-2.1
				c-0.1-0.6-0.2-1-0.4-1.4c-0.2-0.4-0.4-0.6-0.6-0.8c-0.3-0.2-0.6-0.2-1-0.2c-0.4,0-0.7,0.1-0.9,0.2c-0.2,0.1-0.4,0.4-0.6,0.6
				c-0.2,0.3-0.3,0.5-0.4,0.8s-0.1,0.6-0.2,1c0,0.3-0.1,0.7-0.1,1C32.3,38,32.3,38.3,32.3,38.6z"/>
			<path id="XMLID_41_" fill="#939496" d="M44.8,43.9v-9.5h-2.6L42,40.4c0,0.6-0.1,1.1-0.1,1.6s-0.2,0.8-0.4,1.1s-0.4,0.5-0.7,0.7
				s-0.6,0.2-1,0.2c-0.1,0-0.3,0-0.5,0S39.1,44,39,44V43c0.1,0,0.2,0,0.3,0.1c0.1,0,0.2,0,0.3,0c0.2,0,0.4,0,0.5-0.1
				s0.3-0.2,0.4-0.4c0.1-0.2,0.2-0.6,0.2-1c0.1-0.4,0.1-1,0.1-1.8l0.2-6.5h5.1v10.7H44.8z"/>
			<path id="XMLID_43_" fill="#939496" d="M54.4,40.5c0,1.2-0.3,2-0.8,2.5c-0.5,0.5-1.3,0.8-2.5,0.8h-2.8V33.2h1.3v4.4h1.5
				c0.5,0,1,0.1,1.4,0.2c0.4,0.1,0.8,0.3,1,0.5c0.3,0.2,0.5,0.5,0.7,0.9C54.3,39.5,54.4,40,54.4,40.5z M53,40.7c0-0.4-0.1-0.7-0.2-1
				s-0.3-0.5-0.5-0.6c-0.2-0.2-0.4-0.3-0.7-0.3c-0.3-0.1-0.6-0.1-0.9-0.1h-1.2v4.2h1c0.4,0,0.7,0,1-0.1c0.3-0.1,0.6-0.2,0.8-0.3
				c0.2-0.2,0.4-0.4,0.5-0.7S53,41.1,53,40.7z"/>
			<path id="XMLID_46_" fill="#939496" d="M56,33.2h1.3v9.5h3.1v-9.5h1.3v9.5h3.1v-9.5h1.3v10.7H56V33.2z"/>
			<path id="XMLID_48_" fill="#939496" d="M73.9,33.2v1.1h-4.2v3.4h4v1.1h-4v3.9h4.4v1.1h-5.7V33.2H73.9z"/>
		</g>
		<g id="XMLID_36_">
			<path id="XMLID_2_" fill="#939496" d="M142.3,37.2v-4.7h1.4v11.4h-1.4v-5.5h-3.9v5.5H137V32.5h1.4v4.7H142.3z"/>
			<path id="XMLID_5_" fill="#939496" d="M145.9,38.2c0-2,0.3-3.5,0.9-4.5c0.6-0.9,1.5-1.4,2.8-1.4c1.2,0,2.2,0.5,2.7,1.4
				s0.9,2.3,0.9,4.3c0,0.4,0,0.9,0,1.4c0,0.5-0.1,0.9-0.2,1.4c-0.1,0.5-0.2,0.9-0.4,1.3c-0.2,0.4-0.4,0.8-0.6,1.1s-0.6,0.6-1,0.7
				c-0.4,0.2-0.9,0.3-1.5,0.3c-0.5,0-1-0.1-1.4-0.3s-0.7-0.4-1-0.7c-0.3-0.3-0.5-0.7-0.6-1c-0.2-0.4-0.3-0.8-0.4-1.3
				c-0.1-0.4-0.1-0.9-0.2-1.3C145.9,39,145.9,38.6,145.9,38.2z M147.3,38.2c0,1.7,0.2,2.9,0.5,3.7c0.3,0.8,0.9,1.1,1.7,1.1
				c0.4,0,0.7-0.1,1-0.3c0.3-0.2,0.5-0.5,0.7-0.8c0.2-0.4,0.3-0.9,0.4-1.5c0.1-0.6,0.1-1.3,0.1-2.2c0-0.9,0-1.6-0.1-2.2
				s-0.2-1.1-0.4-1.5c-0.2-0.4-0.4-0.7-0.7-0.8s-0.6-0.3-1-0.3c-0.4,0-0.7,0.1-1,0.2s-0.5,0.4-0.6,0.6s-0.3,0.6-0.4,0.9
				c-0.1,0.3-0.1,0.7-0.2,1c0,0.4-0.1,0.7-0.1,1C147.3,37.6,147.3,37.9,147.3,38.2z"/>
			<path id="XMLID_8_" fill="#939496" d="M158.4,32.5c0.5,0,0.9,0,1.3,0.1c0.4,0.1,0.8,0.3,1,0.5c0.3,0.2,0.5,0.5,0.7,0.9
				c0.2,0.4,0.2,0.8,0.2,1.4c0,0.6-0.1,1.1-0.4,1.5s-0.7,0.7-1.2,0.9c0.7,0.1,1.2,0.5,1.5,0.9c0.3,0.5,0.5,1.1,0.5,1.9
				c0,1.1-0.3,1.9-1,2.5c-0.6,0.5-1.5,0.8-2.6,0.8h-3.2V32.5H158.4z M156.7,37.4h1.4c0.7,0,1.2-0.1,1.6-0.4c0.4-0.3,0.6-0.8,0.6-1.5
				c0-0.4-0.1-0.7-0.2-1c-0.1-0.2-0.3-0.4-0.5-0.6s-0.4-0.2-0.7-0.3c-0.3,0-0.6-0.1-0.9-0.1h-1.3V37.4z M156.7,42.8h1.1
				c0.3,0,0.5,0,0.8,0s0.4,0,0.6,0c0.5-0.1,0.9-0.3,1.2-0.7c0.3-0.4,0.4-0.8,0.4-1.5c0-0.7-0.3-1.3-0.8-1.7
				c-0.1-0.1-0.2-0.2-0.3-0.2c-0.1-0.1-0.2-0.1-0.4-0.1c-0.1,0-0.3-0.1-0.5-0.1s-0.4,0-0.7,0h-1.3V42.8z"/>
			<path id="XMLID_12_" fill="#939496" d="M163.9,38.2c0-2,0.3-3.5,0.9-4.5c0.6-0.9,1.5-1.4,2.8-1.4c1.2,0,2.2,0.5,2.7,1.4
				s0.9,2.3,0.9,4.3c0,0.4,0,0.9,0,1.4c0,0.5-0.1,0.9-0.2,1.4c-0.1,0.5-0.2,0.9-0.4,1.3c-0.2,0.4-0.4,0.8-0.6,1.1s-0.6,0.6-1,0.7
				c-0.4,0.2-0.9,0.3-1.5,0.3c-0.5,0-1-0.1-1.4-0.3s-0.7-0.4-1-0.7c-0.3-0.3-0.5-0.7-0.6-1c-0.2-0.4-0.3-0.8-0.4-1.3
				c-0.1-0.4-0.1-0.9-0.2-1.3C163.9,39,163.9,38.6,163.9,38.2z M165.3,38.2c0,1.7,0.2,2.9,0.5,3.7c0.3,0.8,0.9,1.1,1.7,1.1
				c0.4,0,0.7-0.1,1-0.3c0.3-0.2,0.5-0.5,0.7-0.8c0.2-0.4,0.3-0.9,0.4-1.5c0.1-0.6,0.1-1.3,0.1-2.2c0-0.9,0-1.6-0.1-2.2
				s-0.2-1.1-0.4-1.5c-0.2-0.4-0.4-0.7-0.7-0.8s-0.6-0.3-1-0.3c-0.4,0-0.7,0.1-1,0.2s-0.5,0.4-0.6,0.6s-0.3,0.6-0.4,0.9
				c-0.1,0.3-0.1,0.7-0.2,1c0,0.4-0.1,0.7-0.1,1C165.3,37.6,165.3,37.9,165.3,38.2z"/>
			<path id="XMLID_18_" fill="#939496" d="M180.1,40c0,0.6-0.1,1.1-0.2,1.6c-0.1,0.5-0.3,0.9-0.6,1.3c-0.3,0.4-0.6,0.7-1,0.9
				s-1,0.3-1.6,0.3c-0.8,0-1.5-0.2-2-0.5c-0.5-0.4-0.8-0.8-1.1-1.4c-0.2-0.6-0.4-1.2-0.5-1.9c-0.1-0.7-0.1-1.3-0.1-2
				c0-0.7,0-1.3,0.1-2.1c0.1-0.7,0.2-1.4,0.5-2c0.2-0.6,0.6-1.1,1.1-1.5c0.5-0.4,1.1-0.6,2-0.6c1.1,0,1.9,0.3,2.5,0.9
				c0.6,0.6,0.9,1.5,0.9,2.6h-1.4c0-0.3,0-0.6-0.1-0.9c-0.1-0.3-0.2-0.5-0.3-0.8c-0.1-0.2-0.3-0.4-0.6-0.5c-0.2-0.1-0.5-0.2-0.9-0.2
				c-0.4,0-0.7,0.1-1,0.3s-0.5,0.4-0.6,0.7c-0.2,0.3-0.3,0.6-0.4,0.9c-0.1,0.4-0.1,0.7-0.2,1.1c0,0.4-0.1,0.7-0.1,1.1
				c0,0.4,0,0.7,0,0.9c0,0.3,0,0.5,0,0.9c0,0.3,0,0.7,0.1,1c0,0.3,0.1,0.7,0.2,1c0.1,0.3,0.2,0.6,0.4,0.9s0.4,0.5,0.6,0.6
				c0.3,0.2,0.6,0.2,0.9,0.2c1.3,0,2-1,2-3H180.1z"/>
			<path id="XMLID_20_" fill="#939496" d="M188.3,32.5v1.2h-2.8v10.2h-1.4V33.7h-2.9v-1.2H188.3z"/>
			<path id="XMLID_22_" fill="#939496" d="M195.7,32.5v1.2h-4.5v3.6h4.2v1.2h-4.2v4.1h4.7v1.2h-6V32.5H195.7z"/>
			<path id="XMLID_24_" fill="#939496" d="M203.1,43.9v-6.7c0-0.5,0-1.1,0-1.6c0-0.6,0.1-1.1,0.1-1.6h0c-0.1,0.5-0.3,1-0.5,1.6
				c-0.2,0.6-0.5,1.2-0.8,1.9l-2.6,6.4h-1.7V32.5h1.4v6.6c0,0.5,0,1,0,1.5c0,0.5-0.1,1-0.1,1.5h0c0.1-0.2,0.1-0.5,0.2-0.8
				c0.1-0.3,0.2-0.6,0.3-1c0.1-0.3,0.2-0.7,0.4-1c0.1-0.3,0.2-0.6,0.3-0.8l2.6-6.2h1.7v11.4H203.1z M202.6,31.2
				c-0.4,0.4-0.9,0.6-1.5,0.6c-0.6,0-1.1-0.2-1.5-0.6c-0.4-0.4-0.6-0.9-0.6-1.6h0.9c0.1,0.7,0.6,1.1,1.2,1.1s1.1-0.4,1.2-1.1h0.9
				C203.2,30.3,203,30.8,202.6,31.2z"/>
		</g>
		<g id="XMLID_29_">
			<g id="XMLID_25_">
				<path id="XMLID_16_" fill="none" stroke="#959599" stroke-width="5" stroke-miterlimit="10" d="M92.7,30v-4
					c0-1.9,1.5-3.4,3.4-3.4h18.8c1.9,0,3.4,1.5,3.4,3.4v4"/>
				<polygon id="XMLID_28_" fill="#939496" points="84.6,30 100.8,30 93,40.8 				"/>
			</g>
			<g id="XMLID_27_">
				<path id="XMLID_34_" fill="none" stroke="#949599" stroke-width="5" stroke-miterlimit="10" d="M118.2,46.9v4
					c0,1.9-1.5,3.4-3.4,3.4H96.1c-1.9,0-3.4-1.5-3.4-3.4v-4"/>
				<polygon id="XMLID_33_" fill="#939496" points="126.3,46.9 110.1,46.9 117.9,36.1 				"/>
			</g>
		</g>
	</g>
</g>
<g id="XMLID_1_">
</g>
<g id="XMLID_50_">
</g>
<g id="XMLID_51_">
</g>
<g id="XMLID_52_">
</g>
<g id="XMLID_53_">
</g>
<g id="XMLID_54_">
</g>
</svg>
