<?xml version="1.0" encoding="utf-8"?>
<!-- Generator: Adobe Illustrator 19.0.0, SVG Export Plug-In . SVG Version: 6.00 Build 0)  -->
<svg version="1.2" baseProfile="tiny" id="Слой_1"
	 xmlns="http://www.w3.org/2000/svg" xmlns:xlink="http://www.w3.org/1999/xlink" x="0px" y="0px" viewBox="0 0 71 71"
	 xml:space="preserve">
<path id="XMLID_9_" fill="none" stroke="#3A3A3C" stroke-width="2" stroke-miterlimit="10" d="M64.7,29.5c3.3,3.3,3.3,8.7,0,12
	L41.5,64.7c-3.3,3.3-8.7,3.3-12,0L6.3,41.5c-3.3-3.3-3.3-8.7,0-12L29.5,6.3c3.3-3.3,8.7-3.3,12,0L64.7,29.5z"/>
<g id="XMLID_496_">
	<path id="XMLID_497_" fill="#3A3A3C" d="M16.1,34.9l7.9,2.9l3,9.8c0.2,0.6,1,0.9,1.5,0.4l4.4-3.6c0.5-0.4,1.1-0.4,1.6,0l7.9,5.7
		c0.5,0.4,1.3,0.1,1.5-0.6l5.8-27.8c0.1-0.7-0.6-1.3-1.2-1.1L16.1,33.2C15.3,33.5,15.3,34.6,16.1,34.9z M26.5,36.3l15.3-9.5
		c0.3-0.2,0.6,0.2,0.3,0.4L29.5,39c-0.4,0.4-0.7,1-0.8,1.6l-0.4,3.2c-0.1,0.4-0.7,0.5-0.8,0.1L25.8,38
		C25.6,37.3,25.9,36.6,26.5,36.3z"/>
</g>
<g id="XMLID_1_">
</g>
<g id="XMLID_2_">
</g>
<g id="XMLID_4_">
</g>
<g id="XMLID_5_">
</g>
<g id="XMLID_6_">
</g>
<g id="XMLID_7_">
</g>
</svg>
