<?xml version="1.0" encoding="utf-8"?>
<!-- Generator: Adobe Illustrator 19.0.0, SVG Export Plug-In . SVG Version: 6.00 Build 0)  -->
<svg version="1.2" baseProfile="tiny" id="Слой_1"
	 xmlns="http://www.w3.org/2000/svg" xmlns:xlink="http://www.w3.org/1999/xlink" x="0px" y="0px" viewBox="0 0 71 71"
	 xml:space="preserve">
<path id="XMLID_131_" fill="none" stroke="#3A3A3C" stroke-width="2" stroke-miterlimit="10" d="M64.7,29.5c3.3,3.3,3.3,8.7,0,12
	L41.5,64.7c-3.3,3.3-8.7,3.3-12,0L6.3,41.5c-3.3-3.3-3.3-8.7,0-12L29.5,6.3c3.3-3.3,8.7-3.3,12,0L64.7,29.5z"/>
<g id="XMLID_826_">
	<path id="XMLID_827_" fill="#3A3A3C" d="M50,26c-0.5,0.2-1,0.4-1.5,0.5c0.6-0.7,1-1.5,1.3-2.3c0.1-0.2,0-0.4-0.2-0.5
		c-0.2-0.1-0.4-0.1-0.6,0c-1.1,0.6-2.2,1.1-3.4,1.3c-1.2-1.2-2.9-1.9-4.6-1.9c-3.6,0-6.5,2.9-6.5,6.5c0,0.3,0,0.6,0.1,0.8
		c-4.5-0.4-8.6-2.6-11.4-6.1c-0.1-0.1-0.3-0.2-0.4-0.2c-0.2,0-0.3,0.1-0.4,0.2c-0.6,1-0.9,2.1-0.9,3.3c0,1.6,0.6,3.1,1.5,4.2
		c-0.3-0.1-0.6-0.2-0.9-0.4c-0.1-0.1-0.3-0.1-0.5,0c-0.1,0.1-0.2,0.2-0.2,0.4c0,0,0,0.1,0,0.1c0,2.3,1.3,4.4,3.2,5.6
		c-0.2,0-0.3,0-0.5-0.1c-0.2,0-0.3,0-0.5,0.2c-0.1,0.1-0.2,0.3-0.1,0.5c0.7,2.2,2.5,3.9,4.8,4.4c-1.8,1.2-3.9,1.8-6.2,1.8
		c-0.5,0-0.9,0-1.4-0.1c-0.2,0-0.4,0.1-0.5,0.3c-0.1,0.2,0,0.5,0.2,0.6c2.8,1.8,6.1,2.8,9.5,2.8c6.6,0,10.8-3.1,13.1-5.7
		c2.9-3.3,4.5-7.6,4.5-11.9c0-0.2,0-0.4,0-0.5c1.1-0.9,2.1-1.9,2.9-3.1c0.1-0.2,0.1-0.4,0-0.6C50.4,25.9,50.2,25.9,50,26z"/>
</g>
<g id="XMLID_1_">
</g>
<g id="XMLID_2_">
</g>
<g id="XMLID_3_">
</g>
<g id="XMLID_4_">
</g>
<g id="XMLID_5_">
</g>
<g id="XMLID_6_">
</g>
</svg>
