<?xml version="1.0" encoding="utf-8"?>
<!-- Generator: Adobe Illustrator 19.0.0, SVG Export Plug-In . SVG Version: 6.00 Build 0)  -->
<svg version="1.2" baseProfile="tiny" id="Слой_1"
	 xmlns="http://www.w3.org/2000/svg" xmlns:xlink="http://www.w3.org/1999/xlink" x="0px" y="0px" viewBox="0 0 71 71"
	 xml:space="preserve">
<path id="XMLID_149_" fill="none" stroke="#3A3A3C" stroke-width="2" stroke-miterlimit="10" d="M65.6,29.5c3.3,3.3,3.3,8.7,0,12
	L42.4,64.7c-3.3,3.3-8.7,3.3-12,0L7.1,41.5c-3.3-3.3-3.3-8.7,0-12L30.3,6.3c3.3-3.3,8.7-3.3,12,0L65.6,29.5z"/>
<path id="XMLID_141_" fill="#3A3A3C" d="M38.9,38c-1-0.6-2.3-0.6-3.4-0.6h-3.6v7.4h3.3c1.2,0,2.8,0.1,3.8-0.7c1-0.6,1.5-1.9,1.5-3.1
	C40.5,40,39.8,38.6,38.9,38z M37.5,31.7c0.8-0.6,1.2-1.7,1.2-2.7c0-1.1-0.5-2.1-1.4-2.7c-1-0.6-2.7-0.4-3.9-0.4h-1.6v6.5H34
	C35.1,32.4,36.5,32.5,37.5,31.7z M37.3,50.4H24.9V20.6h13.5c3.9,0,7.5,2.5,7.5,6.9c0,3.4-1.9,5.7-4.3,6.4V34
	c3.6,0.7,6.1,2.7,6.1,7.4C47.7,45.7,44.8,50.4,37.3,50.4z"/>
<g id="XMLID_1_">
</g>
<g id="XMLID_2_">
</g>
<g id="XMLID_3_">
</g>
<g id="XMLID_4_">
</g>
<g id="XMLID_5_">
</g>
<g id="XMLID_6_">
</g>
</svg>
