<?xml version="1.0" encoding="utf-8"?>
<!-- Generator: Adobe Illustrator 19.0.0, SVG Export Plug-In . SVG Version: 6.00 Build 0)  -->
<svg version="1.2" baseProfile="tiny" id="Слой_1"
	 xmlns="http://www.w3.org/2000/svg" xmlns:xlink="http://www.w3.org/1999/xlink" x="0px" y="0px" viewBox="0 0 71 71"
	 xml:space="preserve">
<path id="XMLID_24_" fill="none" stroke="#3A3A3C" stroke-width="2" stroke-miterlimit="10" d="M64.7,29.5c3.3,3.3,3.3,8.7,0,12
	L41.5,64.7c-3.3,3.3-8.7,3.3-12,0L6.3,41.5c-3.3-3.3-3.3-8.7,0-12L29.5,6.3c3.3-3.3,8.7-3.3,12,0L64.7,29.5z"/>
<g id="XMLID_20_">
	<path id="XMLID_21_" fill="#3A3A3C" d="M53.2,26.8c-0.4-1.9-2-3.4-4-3.6c-4.5-0.5-9.1-0.5-13.7-0.5c-4.6,0-9.2,0-13.7,0.5
		c-1.9,0.2-3.5,1.7-4,3.6c-0.6,2.8-0.6,5.8-0.6,8.7s0,5.9,0.6,8.7c0.4,1.9,2,3.4,4,3.6c4.5,0.5,9.1,0.5,13.7,0.5
		c4.6,0,9.2,0,13.7-0.5c1.9-0.2,3.5-1.7,4-3.6c0.6-2.8,0.6-5.8,0.6-8.7C53.8,32.6,53.8,29.6,53.2,26.8z M30.8,41.2
		c0-4.1,0-8.1,0-12.1c3.9,2,7.7,4,11.6,6.1C38.5,37.2,34.7,39.2,30.8,41.2z"/>
</g>
<g id="XMLID_1_">
</g>
<g id="XMLID_2_">
</g>
<g id="XMLID_3_">
</g>
<g id="XMLID_4_">
</g>
<g id="XMLID_5_">
</g>
<g id="XMLID_6_">
</g>
</svg>
